<?xml version="1.0" encoding="iso-8859-1"?>
<!-- Generator: Adobe Illustrator 19.0.0, SVG Export Plug-In . SVG Version: 6.00 Build 0)  -->
<svg version="1.1" id="Capa_1" xmlns="http://www.w3.org/2000/svg" xmlns:xlink="http://www.w3.org/1999/xlink" x="0px" y="0px"
	 viewBox="0 0 512 512" style="enable-background:new 0 0 512 512;" xml:space="preserve">
<path style="fill:#293939;" d="M451,151V45c0-8.276,6.724-15,15-15h31c8.291,0,15-6.709,15-15s-6.709-15-15-15h-31
	c-24.814,0-45,20.186-45,45v106l21.25,30L451,151z"/>
<path style="fill:#384949;" d="M271,377c0,8.399-6.599,15-15,15h-31c-24.901,0-45-20.101-45-45V151c0-16.5-13.5-30-30-30
	s-30,13.5-30,30v226c0,8.399-6.599,15-15,15s-15-6.601-15-15V151c0-15,5.4-28.801,15-39.3C115.8,99.101,132.001,91,150,91
	c32.999,0,60,27.001,60,60v196c0,8.399,6.599,15,15,15h31C264.401,362,271,368.599,271,377z"/>
<path style="fill:#293939;" d="M271,377c0,8.399-6.599,15-15,15h-31c-24.901,0-45-20.101-45-45V151c0-16.5-13.5-30-30-30
	s-30,13.5-30,30v226c0,8.399-6.599,15-15,15V111.7C115.8,99.101,132.001,91,150,91c32.999,0,60,27.001,60,60v196
	c0,8.399,6.599,15,15,15h31C264.401,362,271,368.599,271,377z"/>
<path style="fill:#537983;" d="M105,362c-24.901,0-45,20.099-45,45v30c0,8.399,6.599,15,15,15h60c8.401,0,15-6.601,15-15v-30
	C150,382.099,129.901,362,105,362z"/>
<path style="fill:#4A696F;" d="M150,407v30c0,8.399-6.599,15-15,15h-30v-90C129.901,362,150,382.099,150,407z"/>
<path style="fill:#3E5959;" d="M135,422H75c-41.4,0-75,33.6-75,75c0,8.399,6.599,15,15,15h180c8.401,0,15-6.601,15-15
	C210,455.6,176.4,422,135,422z"/>
<path style="fill:#293939;" d="M210,497c0,8.399-6.599,15-15,15h-90v-90h30C176.4,422,210,455.6,210,497z"/>
<path style="fill:#F40000;" d="M451,151v301l-60,60H286c-24.901,0-45-20.101-45-45V332l150-181H451z"/>
<polygon style="fill:#CD0000;" points="451,151 451,452 391,512 391,151 "/>
<path style="fill:#384949;" d="M391,392c-32.999,0-60,26.999-60,60c0,32.999,27.001,60,60,60s60-27.001,60-60
	C451,418.999,423.999,392,391,392z"/>
<path style="fill:#293939;" d="M451,452c0,32.999-27.001,60-60,60V392C423.999,392,451,418.999,451,452z"/>
<path style="fill:#EDE9E8;" d="M391,422c-16.5,0-30,13.5-30,30s13.5,30,30,30s30-13.5,30-30S407.5,422,391,422z"/>
<path style="fill:#DFD7D5;" d="M421,452c0,16.5-13.5,30-30,30v-60C407.5,422,421,435.5,421,452z"/>
<path style="fill:#384949;" d="M391,287V151h-15c-74.559,0-135,61.441-135,136v45h105C370.814,332,391,311.814,391,287z"/>
<g>
</g>
<g>
</g>
<g>
</g>
<g>
</g>
<g>
</g>
<g>
</g>
<g>
</g>
<g>
</g>
<g>
</g>
<g>
</g>
<g>
</g>
<g>
</g>
<g>
</g>
<g>
</g>
<g>
</g>
</svg>
