<?xml version="1.0" encoding="iso-8859-1"?>
<!-- Generator: Adobe Illustrator 19.0.0, SVG Export Plug-In . SVG Version: 6.00 Build 0)  -->
<svg version="1.1" id="Capa_1" xmlns="http://www.w3.org/2000/svg" xmlns:xlink="http://www.w3.org/1999/xlink" x="0px" y="0px"
	 viewBox="0 0 512 512" style="enable-background:new 0 0 512 512;" xml:space="preserve">
<path style="fill:#D2C5C2;" d="M397.728,391l25.854,51.709C426.131,447.792,431.316,451,437,451h60c8.291,0,15-6.709,15-15v-45
	l-41.25-30L397.728,391z"/>
<path style="fill:#DFD7D5;" d="M0,391v45c0,8.291,6.709,15,15,15h60c5.684,0,10.869-3.208,13.418-8.291L114.272,391l-57.136-30
	L0,391z"/>
<path style="fill:#3E5959;" d="M362,241l-30,150H0V106c0-24.901,20.099-45,45-45h287L362,241z"/>
<polygon style="fill:#384949;" points="362,241 332,391 166,391 166,61 332,61 "/>
<path style="fill:#293939;" d="M512,106c0-24.853-20.147-45-45-45H332v330h180V106z"/>
<g>
	<circle style="fill:#DFD7D5;" cx="377" cy="256" r="15"/>
	<circle style="fill:#DFD7D5;" cx="437" cy="256" r="15"/>
	<circle style="fill:#DFD7D5;" cx="377" cy="316" r="15"/>
	<circle style="fill:#DFD7D5;" cx="437" cy="316" r="15"/>
</g>
<path style="fill:#EDE9E8;" d="M257,121H75c-8.401,0-15,6.599-15,15v180c0,8.399,6.599,15,15,15h182c8.401,0,15-6.601,15-15V136
	C272,127.599,265.401,121,257,121z"/>
<path style="fill:#00DDC1;" d="M437,211h-60c-8.291,0-15-6.709-15-15v-60c0-8.291,6.709-15,15-15h60c8.291,0,15,6.709,15,15v60
	C452,204.291,445.291,211,437,211z"/>
<path style="fill:#DFD7D5;" d="M272,136v180c0,8.399-6.599,15-15,15h-91V121h91C265.401,121,272,127.599,272,136z"/>
<g>
</g>
<g>
</g>
<g>
</g>
<g>
</g>
<g>
</g>
<g>
</g>
<g>
</g>
<g>
</g>
<g>
</g>
<g>
</g>
<g>
</g>
<g>
</g>
<g>
</g>
<g>
</g>
<g>
</g>
</svg>
