<?xml version="1.0" encoding="iso-8859-1"?>
<!-- Generator: Adobe Illustrator 19.0.0, SVG Export Plug-In . SVG Version: 6.00 Build 0)  -->
<svg version="1.1" id="Capa_1" xmlns="http://www.w3.org/2000/svg" xmlns:xlink="http://www.w3.org/1999/xlink" x="0px" y="0px"
	 viewBox="0 0 512 512" style="enable-background:new 0 0 512 512;" xml:space="preserve">
<polygon style="fill:#384949;" points="330.099,476.199 181.901,476.199 211.901,386.199 300.099,386.199 "/>
<polygon style="fill:#293939;" points="300.099,386.199 330.099,476.199 256,476.199 256,386.199 "/>
<path style="fill:#384949;" d="M512,61v225l-27.599,30h-467L0,286V61c0-24.901,20.099-45,45-45h422C491.901,16,512,36.099,512,61z"
	/>
<path style="fill:#293939;" d="M512,61v225l-27.599,30H256V16h211C491.901,16,512,36.099,512,61z"/>
<path style="fill:#EDE9E8;" d="M482,61v255H30V61c0-8.401,6.599-15,15-15h422C475.401,46,482,52.599,482,61z"/>
<path style="fill:#DFD7D5;" d="M482,61v255H256V46h211C475.401,46,482,52.599,482,61z"/>
<path style="fill:#3E5959;" d="M512,286v75c0,24.899-20.099,45-45,45H45c-24.901,0-45-20.101-45-45v-75H512z"/>
<path style="fill:#384949;" d="M512,286v75c0,24.899-20.099,45-45,45H256V286H512z"/>
<path style="fill:#3E5959;" d="M391,481c0,8.399-6.599,15-15,15H136c-8.401,0-15-6.601-15-15c0-8.401,6.599-15,15-15h240
	C384.401,466,391,472.599,391,481z"/>
<path style="fill:#00DDC1;" d="M301,331c0,8.399-6.599,15-15,15h-60c-8.401,0-15-6.601-15-15c0-8.401,6.599-15,15-15h60
	C294.401,316,301,322.599,301,331z"/>
<path style="fill:#00AB94;" d="M286,346h-30v-30h30c8.401,0,15,6.599,15,15C301,339.399,294.401,346,286,346z"/>
<path style="fill:#384949;" d="M391,481c0,8.399-6.599,15-15,15H256v-30h120C384.401,466,391,472.599,391,481z"/>
<g>
</g>
<g>
</g>
<g>
</g>
<g>
</g>
<g>
</g>
<g>
</g>
<g>
</g>
<g>
</g>
<g>
</g>
<g>
</g>
<g>
</g>
<g>
</g>
<g>
</g>
<g>
</g>
<g>
</g>
</svg>
